<svg xmlns="http://www.w3.org/2000/svg" version="1.1" xmlns:xlink="http://www.w3.org/1999/xlink" xmlns:svgjs="http://svgjs.com/svgjs" width="1440" height="560" preserveAspectRatio="none" viewBox="0 0 1440 560"><g mask="url(&quot;#SvgjsMask1017&quot;)" fill="none"><path d="M703.28 634.65C853.39 591.75 900.09 173.99 1120.56 170.08 1341.03 166.17 1424.37 345.54 1537.84 349.28" stroke="rgba(51,121,194,0.58)" stroke-width="2"></path><path d="M328.58 594.06C492.84 592.58 632.49 427.22 963.1 423.41 1293.7 419.6 1431.18 224.21 1597.61 221.81" stroke="rgba(51,121,194,0.58)" stroke-width="2"></path><path d="M787.06 648.52C914.57 576.42 845.19 148.87 1083.26 142.98 1321.32 137.09 1522.09 303.92 1675.65 305.38" stroke="rgba(51,121,194,0.58)" stroke-width="2"></path><path d="M522.06 634.75C632.24 609.91 574.44 331.72 844.68 318.46 1114.92 305.2 1323.24 151.83 1489.92 150.46" stroke="rgba(51,121,194,0.58)" stroke-width="2"></path><path d="M219.13 586.66C341.05 582.38 440.24 390.47 665.81 390.16 891.38 389.85 889.15 460.16 1112.49 460.16 1335.83 460.16 1446.14 390.37 1559.17 390.16" stroke="rgba(51,121,194,0.58)" stroke-width="2"></path></g><defs><mask id="SvgjsMask1017"><rect width="1440" height="560" fill="#ffffff"></rect></mask></defs></svg>